<?xml version="1.0" standalone="no"?>
<!DOCTYPE svg PUBLIC "-//W3C//DTD SVG 20010904//EN"
 "http://www.w3.org/TR/2001/REC-SVG-20010904/DTD/svg10.dtd">
<svg version="1.0" xmlns="http://www.w3.org/2000/svg"
 width="1061.000000pt" height="680.000000pt" viewBox="0 0 1061.000000 680.000000"
 preserveAspectRatio="xMidYMid meet">

<g transform="translate(0.000000,680.000000) scale(0.100000,-0.100000)"
fill="#000000" stroke="none">
<path d="M310 1618 l0 -68 70 0 70 0 0 68 0 67 -70 0 -70 0 0 -67z"/>
<path d="M496 1658 c-3 -13 -6 -42 -6 -65 l0 -43 75 0 75 0 0 28 c0 15 -3 44
-6 65 l-7 37 -62 0 c-57 0 -63 -2 -69 -22z"/>
<path d="M680 1615 l0 -65 70 0 70 0 0 34 c0 18 -3 48 -6 65 -6 31 -7 31 -70
31 l-64 0 0 -65z"/>
<path d="M866 1664 c-3 -9 -6 -38 -6 -65 l0 -49 70 0 70 0 0 65 0 65 -64 0
c-49 0 -65 -4 -70 -16z"/>
<path d="M1046 1658 c-3 -13 -6 -42 -6 -65 l0 -43 76 0 77 0 -7 46 c-3 26 -6
55 -6 65 0 17 -8 19 -64 19 -58 0 -64 -2 -70 -22z"/>
<path d="M9400 1560 l0 -70 71 0 70 0 -3 70 -3 70 -67 0 -68 0 0 -70z m67 54
c-3 -3 -12 -4 -19 -1 -8 3 -5 6 6 6 11 1 17 -2 13 -5z"/>
<path d="M9589 1621 c9 -6 10 -11 2 -15 -6 -4 -11 -32 -11 -62 l0 -54 70 0 70
0 0 60 c0 41 -4 60 -12 60 -9 0 -8 4 2 10 10 7 -8 10 -60 10 -46 0 -70 -4 -61
-9z m64 -8 c-7 -2 -19 -2 -25 0 -7 3 -2 5 12 5 14 0 19 -2 13 -5z"/>
<path d="M9767 1568 c-3 -34 -3 -66 -1 -70 3 -4 34 -8 70 -8 l64 0 0 70 0 70
-64 0 -63 0 -6 -62z"/>
<path d="M9950 1560 l0 -70 70 0 70 0 0 60 c0 41 -4 60 -12 60 -9 0 -8 4 2 10
10 7 -7 10 -57 10 l-73 0 0 -70z"/>
<path d="M10130 1560 l0 -70 70 0 70 0 0 70 0 70 -70 0 -70 0 0 -70z m88 53
c-16 -2 -40 -2 -55 0 -16 2 -3 4 27 4 30 0 43 -2 28 -4z"/>
<path d="M6070 1599 c0 -7 -23 -10 -65 -7 l-65 3 0 -52 0 -53 70 0 70 0 0 60
c0 33 -2 60 -5 60 -3 0 -5 -5 -5 -11z"/>
<path d="M6310 1543 l0 -53 64 0 c36 0 67 4 70 9 3 5 3 29 0 52 l-6 44 -64 0
-64 0 0 -52z"/>
<path d="M6560 1591 l-65 -6 -3 -47 -3 -48 70 0 71 0 0 55 c0 30 -1 54 -2 53
-2 -1 -32 -4 -68 -7z"/>
<path d="M5750 1540 l0 -50 75 0 75 0 0 28 c0 67 -6 72 -81 72 l-69 0 0 -50z"/>
<path d="M6126 1574 c-3 -9 -6 -31 -6 -50 l0 -34 69 0 c39 0 72 4 76 9 3 6 3
28 -1 50 l-7 41 -62 0 c-48 0 -64 -4 -69 -16z"/>
<path d="M310 1435 l0 -75 70 0 70 0 0 75 0 75 -70 0 -70 0 0 -75z"/>
<path d="M492 1438 l3 -73 70 0 70 0 3 73 3 72 -76 0 -76 0 3 -72z"/>
<path d="M680 1435 l0 -76 68 3 67 3 3 73 3 72 -71 0 -70 0 0 -75z"/>
<path d="M860 1435 l0 -75 70 0 70 0 0 75 0 75 -70 0 -70 0 0 -75z"/>
<path d="M1042 1438 l3 -73 70 0 70 0 3 73 3 72 -76 0 -76 0 3 -72z"/>
<path d="M5750 1380 l0 -70 75 0 75 0 0 70 0 70 -75 0 -75 0 0 -70z"/>
<path d="M5940 1380 l0 -70 70 0 70 0 0 70 0 70 -70 0 -70 0 0 -70z"/>
<path d="M6120 1380 l0 -70 75 0 75 0 0 70 0 70 -75 0 -75 0 0 -70z"/>
<path d="M6304 1436 c-3 -7 -4 -38 -2 -67 l3 -54 73 -3 72 -3 0 71 0 70 -70 0
c-51 0 -72 -4 -76 -14z"/>
<path d="M6490 1380 l0 -70 70 0 70 0 0 70 0 70 -70 0 -70 0 0 -70z"/>
<path d="M9400 1380 l0 -70 70 0 70 0 0 70 0 70 -70 0 -70 0 0 -70z"/>
<path d="M9580 1380 l0 -70 70 0 70 0 0 70 0 70 -70 0 -70 0 0 -70z"/>
<path d="M9767 1443 c-4 -3 -7 -35 -7 -70 l0 -63 70 0 70 0 0 70 0 70 -63 0
c-35 0 -67 -3 -70 -7z"/>
<path d="M9950 1380 l0 -70 70 0 70 0 0 70 0 70 -70 0 -70 0 0 -70z"/>
<path d="M10130 1380 l0 -70 70 0 70 0 0 70 0 70 -70 0 -70 0 0 -70z"/>
<path d="M310 1255 l0 -75 70 0 70 0 0 75 0 75 -70 0 -70 0 0 -75z"/>
<path d="M490 1255 l0 -75 75 0 76 0 -3 73 -3 72 -72 3 -73 3 0 -76z"/>
<path d="M680 1326 c-3 -2 -4 -36 -2 -75 l4 -71 69 0 70 0 -3 73 -3 72 -65 3
c-36 2 -68 1 -70 -2z"/>
<path d="M860 1255 l0 -75 70 0 70 0 0 75 0 75 -70 0 -70 0 0 -75z"/>
<path d="M1040 1255 l0 -75 75 0 76 0 -3 73 -3 72 -72 3 -73 3 0 -76z"/>
<path d="M5750 1195 l0 -76 73 3 72 3 3 73 3 72 -76 0 -75 0 0 -75z"/>
<path d="M5940 1195 l0 -75 70 0 70 0 0 75 0 75 -70 0 -70 0 0 -75z"/>
<path d="M6120 1195 l0 -76 73 3 72 3 3 73 3 72 -76 0 -75 0 0 -75z"/>
<path d="M6304 1256 c-3 -7 -4 -40 -2 -72 l3 -59 70 0 70 0 3 73 3 72 -71 0
c-50 0 -72 -4 -76 -14z"/>
<path d="M6490 1195 l0 -75 70 0 70 0 0 75 0 75 -70 0 -70 0 0 -75z"/>
<path d="M9400 1195 l0 -75 70 0 70 0 0 75 0 75 -70 0 -70 0 0 -75z"/>
<path d="M9580 1195 l0 -75 70 0 70 0 0 75 0 75 -70 0 -70 0 0 -75z"/>
<path d="M9764 1256 c-3 -7 -4 -40 -2 -72 l3 -59 68 -3 67 -3 0 76 0 75 -65 0
c-46 0 -67 -4 -71 -14z"/>
<path d="M9950 1195 l0 -75 70 0 70 0 0 75 0 75 -70 0 -70 0 0 -75z"/>
<path d="M10130 1195 l0 -75 70 0 70 0 0 75 0 75 -70 0 -70 0 0 -75z"/>
<path d="M310 1065 l0 -75 70 0 70 0 0 75 0 75 -70 0 -70 0 0 -75z"/>
<path d="M492 1068 l3 -73 70 0 70 0 3 73 3 72 -76 0 -76 0 3 -72z"/>
<path d="M678 1065 l4 -76 66 3 67 3 3 73 3 72 -73 0 -73 0 3 -75z"/>
<path d="M860 1065 l0 -75 70 0 70 0 0 75 0 75 -70 0 -70 0 0 -75z"/>
<path d="M1042 1068 l3 -73 70 0 70 0 3 73 3 72 -76 0 -76 0 3 -72z"/>
<path d="M1230 1065 l0 -75 70 0 70 0 0 75 0 75 -70 0 -70 0 0 -75z"/>
<path d="M1410 1065 l0 -76 73 3 72 3 3 73 3 72 -76 0 -75 0 0 -75z"/>
<path d="M1592 1068 l3 -73 70 0 70 0 3 73 3 72 -76 0 -76 0 3 -72z"/>
<path d="M1780 1065 l0 -75 70 0 70 0 0 75 0 75 -70 0 -70 0 0 -75z"/>
<path d="M1960 1065 l0 -76 73 3 72 3 3 73 3 72 -76 0 -75 0 0 -75z"/>
<path d="M2142 1068 l3 -73 73 -3 72 -3 0 76 0 75 -75 0 -76 0 3 -72z"/>
<path d="M2330 1065 l0 -75 69 0 69 0 4 75 3 75 -72 0 -73 0 0 -75z"/>
<path d="M2512 1068 l3 -73 70 0 70 0 3 73 3 72 -76 0 -76 0 3 -72z"/>
<path d="M2700 1070 l0 -70 70 0 70 0 0 70 0 70 -70 0 -70 0 0 -70z"/>
<path d="M2880 1071 l0 -69 70 -4 70 -3 0 73 0 72 -70 0 -70 0 0 -69z"/>
<path d="M3050 1070 l0 -70 75 0 75 0 0 70 0 70 -75 0 -75 0 0 -70z"/>
<path d="M3240 1068 l0 -73 70 0 70 0 0 73 0 72 -70 0 -70 0 0 -72z"/>
<path d="M3420 1070 l0 -70 75 0 75 0 0 70 0 70 -75 0 -75 0 0 -70z"/>
<path d="M3610 1068 l0 -73 70 3 70 4 0 69 0 69 -70 0 -70 0 0 -72z"/>
<path d="M3790 1070 l0 -70 69 0 69 0 4 70 3 70 -72 0 -73 0 0 -70z"/>
<path d="M3970 1070 l0 -70 75 0 75 0 0 70 0 70 -75 0 -75 0 0 -70z"/>
<path d="M4160 1068 l0 -73 70 0 70 0 0 73 0 72 -70 0 -70 0 0 -72z"/>
<path d="M4340 1070 l0 -70 75 0 75 0 0 70 0 70 -75 0 -75 0 0 -70z"/>
<path d="M4530 1068 l0 -73 70 3 70 4 0 69 0 69 -70 0 -70 0 0 -72z"/>
<path d="M4710 1070 l0 -70 70 0 70 0 0 70 0 70 -70 0 -70 0 0 -70z"/>
<path d="M6650 1010 l0 -70 75 0 75 0 0 70 0 70 -75 0 -75 0 0 -70z"/>
<path d="M6840 1010 l0 -70 70 0 70 0 0 70 0 70 -70 0 -70 0 0 -70z"/>
<path d="M7020 1010 l0 -70 75 0 75 0 0 70 0 70 -75 0 -75 0 0 -70z"/>
<path d="M7210 1010 l0 -70 70 0 70 0 0 70 0 70 -70 0 -70 0 0 -70z"/>
<path d="M7390 1010 l0 -70 75 0 75 0 0 70 0 70 -75 0 -75 0 0 -70z"/>
<path d="M7570 1010 l0 -70 75 0 75 0 0 70 0 70 -75 0 -75 0 0 -70z"/>
<path d="M7760 1010 l0 -70 70 0 70 0 0 70 0 70 -70 0 -70 0 0 -70z"/>
<path d="M7940 1010 l0 -70 70 0 70 0 0 70 0 70 -70 0 -70 0 0 -70z"/>
<path d="M8130 1010 l0 -70 70 0 70 0 0 70 0 70 -70 0 -70 0 0 -70z"/>
<path d="M8310 1010 l0 -70 70 0 70 0 0 70 0 70 -70 0 -70 0 0 -70z"/>
<path d="M8490 1010 l0 -71 73 3 72 3 3 68 3 67 -76 0 -75 0 0 -70z"/>
<path d="M8680 1010 l0 -70 70 0 70 0 0 70 0 70 -70 0 -70 0 0 -70z"/>
<path d="M8860 1010 l0 -70 70 0 70 0 0 70 0 70 -70 0 -70 0 0 -70z"/>
<path d="M9040 1010 l0 -70 75 0 75 0 0 70 0 70 -75 0 -75 0 0 -70z"/>
<path d="M9230 1010 l0 -70 70 0 70 0 0 70 0 70 -70 0 -70 0 0 -70z"/>
<path d="M310 885 l0 -75 70 0 70 0 0 75 0 75 -70 0 -70 0 0 -75z"/>
<path d="M490 885 l0 -75 75 0 76 0 -3 73 -3 72 -72 3 -73 3 0 -76z"/>
<path d="M679 956 c-2 -2 -3 -36 -1 -75 l4 -71 69 0 69 0 0 75 0 75 -68 0
c-38 0 -71 -2 -73 -4z"/>
<path d="M860 885 l0 -75 70 0 70 0 0 75 0 75 -70 0 -70 0 0 -75z"/>
<path d="M1040 885 l0 -76 73 3 72 3 0 70 0 70 -72 3 -73 3 0 -76z"/>
<path d="M1230 885 l0 -75 70 0 70 0 0 75 0 75 -70 0 -70 0 0 -75z"/>
<path d="M1410 885 l0 -76 73 3 72 3 0 70 0 70 -72 3 -73 3 0 -76z"/>
<path d="M1594 947 c-3 -8 -4 -41 -2 -73 l3 -59 73 -3 73 -3 -3 73 -3 73 -68
3 c-51 2 -69 -1 -73 -11z"/>
<path d="M1780 885 l0 -75 70 0 70 0 0 75 0 75 -70 0 -70 0 0 -75z"/>
<path d="M1960 885 l0 -76 73 3 72 3 0 70 0 70 -72 3 -73 3 0 -76z"/>
<path d="M2144 946 c-3 -7 -4 -40 -2 -72 l3 -59 73 -3 72 -3 0 76 0 75 -70 0
c-50 0 -72 -4 -76 -14z"/>
<path d="M2330 885 l0 -75 69 0 69 0 4 71 c2 39 1 73 -1 75 -2 2 -35 4 -73 4
l-68 0 0 -75z"/>
<path d="M2514 947 c-3 -8 -4 -41 -2 -73 l3 -59 70 0 70 0 0 70 0 70 -68 3
c-51 2 -69 -1 -73 -11z"/>
<path d="M2700 885 l0 -75 70 0 71 0 -3 73 -3 72 -67 3 -68 3 0 -76z"/>
<path d="M2887 953 c-4 -3 -7 -37 -7 -75 l0 -68 70 0 70 0 0 75 0 75 -63 0
c-35 0 -67 -3 -70 -7z"/>
<path d="M3054 946 c-3 -7 -4 -40 -2 -72 l3 -59 73 -3 72 -3 0 76 0 75 -70 0
c-50 0 -72 -4 -76 -14z"/>
<path d="M3240 885 l0 -75 70 0 70 0 0 75 0 75 -70 0 -70 0 0 -75z"/>
<path d="M3424 946 c-3 -7 -4 -40 -2 -72 l3 -59 73 -3 72 -3 0 76 0 75 -70 0
c-50 0 -72 -4 -76 -14z"/>
<path d="M3610 885 l0 -75 70 0 71 0 -3 73 -3 72 -67 3 -68 3 0 -76z"/>
<path d="M3797 953 c-4 -3 -7 -37 -7 -75 l0 -68 69 0 69 0 4 71 c2 39 1 73 -1
75 -7 7 -127 4 -134 -3z"/>
<path d="M3977 954 c-4 -4 -7 -38 -7 -76 l0 -69 73 3 72 3 0 70 0 70 -65 3
c-36 2 -69 0 -73 -4z"/>
<path d="M4160 885 l0 -75 70 0 70 0 0 75 0 75 -70 0 -70 0 0 -75z"/>
<path d="M4347 954 c-4 -4 -7 -38 -7 -76 l0 -68 75 0 76 0 -3 73 -3 72 -65 3
c-36 2 -69 0 -73 -4z"/>
<path d="M4530 885 l0 -75 70 0 70 0 0 75 0 75 -70 0 -70 0 0 -75z"/>
<path d="M4717 953 c-4 -3 -7 -37 -7 -75 l0 -68 70 0 70 0 0 75 0 75 -63 0
c-35 0 -67 -3 -70 -7z"/>
<path d="M6652 828 l3 -73 73 -3 72 -3 0 76 0 75 -75 0 -76 0 3 -72z"/>
<path d="M6840 825 l0 -75 70 0 70 0 0 75 0 75 -70 0 -70 0 0 -75z"/>
<path d="M7020 825 l0 -75 75 0 75 0 0 75 0 75 -75 0 -75 0 0 -75z"/>
<path d="M7210 825 l0 -75 70 0 70 0 0 75 0 75 -70 0 -70 0 0 -75z"/>
<path d="M7390 825 l0 -76 73 3 72 3 3 73 3 72 -76 0 -75 0 0 -75z"/>
<path d="M7572 828 l3 -73 70 0 70 0 3 73 3 72 -76 0 -76 0 3 -72z"/>
<path d="M7760 825 l0 -75 70 0 70 0 0 75 0 75 -70 0 -70 0 0 -75z"/>
<path d="M7940 825 l0 -75 70 0 70 0 0 75 0 75 -70 0 -70 0 0 -75z"/>
<path d="M8130 825 l0 -75 70 0 70 0 0 75 0 75 -70 0 -70 0 0 -75z"/>
<path d="M8310 825 l0 -75 70 0 70 0 0 75 0 75 -70 0 -70 0 0 -75z"/>
<path d="M8492 828 l3 -73 70 0 70 0 3 73 3 72 -76 0 -76 0 3 -72z"/>
<path d="M8680 825 l0 -75 70 0 70 0 0 75 0 75 -70 0 -70 0 0 -75z"/>
<path d="M8860 825 l0 -75 70 0 70 0 0 75 0 75 -70 0 -70 0 0 -75z"/>
<path d="M9040 830 l0 -70 75 0 75 0 0 70 0 70 -75 0 -75 0 0 -70z"/>
<path d="M9230 830 l0 -70 70 0 70 0 0 70 0 70 -70 0 -70 0 0 -70z"/>
<path d="M310 703 l0 -73 70 0 70 0 0 73 0 72 -70 0 -70 0 0 -72z"/>
<path d="M1230 703 l0 -73 70 0 70 0 0 73 0 72 -70 0 -70 0 0 -72z"/>
<path d="M2028 772 l-68 -3 0 -69 0 -70 75 0 75 0 0 69 c0 39 -3 71 -7 73 -5
2 -38 2 -75 0z"/>
<path d="M2330 703 l0 -73 70 0 70 0 0 73 0 72 -70 0 -70 0 0 -72z"/>
<path d="M490 700 l0 -70 75 0 75 0 0 70 0 70 -75 0 -75 0 0 -70z"/>
<path d="M680 700 l0 -70 70 0 70 0 0 70 0 70 -70 0 -70 0 0 -70z"/>
<path d="M860 700 l0 -70 70 0 70 0 0 70 0 70 -70 0 -70 0 0 -70z"/>
<path d="M1040 700 l0 -70 75 0 75 0 0 70 0 70 -75 0 -75 0 0 -70z"/>
<path d="M1410 700 l0 -70 75 0 75 0 0 70 0 70 -75 0 -75 0 0 -70z"/>
<path d="M1590 700 l0 -70 75 0 75 0 0 70 0 70 -75 0 -75 0 0 -70z"/>
<path d="M1780 700 l0 -70 70 0 70 0 0 70 0 70 -70 0 -70 0 0 -70z"/>
<path d="M2140 700 l0 -70 75 0 75 0 0 70 0 70 -75 0 -75 0 0 -70z"/>
<path d="M2510 700 l0 -70 75 0 75 0 0 70 0 70 -75 0 -75 0 0 -70z"/>
<path d="M2700 700 l0 -70 70 0 70 0 0 70 0 70 -70 0 -70 0 0 -70z"/>
<path d="M2880 700 l0 -70 70 0 70 0 0 70 0 70 -70 0 -70 0 0 -70z"/>
<path d="M3050 700 l0 -70 75 0 75 0 0 70 0 70 -75 0 -75 0 0 -70z"/>
<path d="M3240 700 l0 -70 70 0 70 0 0 70 0 70 -70 0 -70 0 0 -70z"/>
<path d="M3420 700 l0 -70 75 0 75 0 0 70 0 70 -75 0 -75 0 0 -70z"/>
<path d="M3610 700 l0 -70 70 0 70 0 0 70 0 70 -70 0 -70 0 0 -70z"/>
<path d="M3790 700 l0 -70 70 0 70 0 0 70 0 70 -70 0 -70 0 0 -70z"/>
<path d="M3970 700 l0 -70 75 0 75 0 0 70 0 70 -75 0 -75 0 0 -70z"/>
<path d="M4160 700 l0 -70 70 0 70 0 0 70 0 70 -70 0 -70 0 0 -70z"/>
<path d="M4340 700 l0 -70 75 0 75 0 0 70 0 70 -75 0 -75 0 0 -70z"/>
<path d="M4530 700 l0 -70 70 0 70 0 0 70 0 70 -70 0 -70 0 0 -70z"/>
<path d="M4710 700 l0 -70 70 0 70 0 0 70 0 70 -70 0 -70 0 0 -70z"/>
<path d="M6652 643 l3 -68 73 -3 72 -3 0 71 0 70 -75 0 -76 0 3 -67z"/>
<path d="M6840 640 l0 -70 70 0 70 0 0 70 0 70 -70 0 -70 0 0 -70z"/>
<path d="M7020 640 l0 -70 75 0 75 0 0 70 0 70 -75 0 -75 0 0 -70z"/>
<path d="M7210 640 l0 -70 70 0 70 0 0 70 0 70 -70 0 -70 0 0 -70z"/>
<path d="M7390 640 l0 -70 75 0 75 0 0 70 0 70 -75 0 -75 0 0 -70z"/>
<path d="M7572 643 l3 -68 73 -3 72 -3 0 71 0 70 -75 0 -76 0 3 -67z"/>
<path d="M7760 640 l0 -70 70 0 70 0 0 70 0 70 -70 0 -70 0 0 -70z"/>
<path d="M7940 640 l0 -70 69 0 69 0 4 70 3 70 -72 0 -73 0 0 -70z"/>
<path d="M8130 640 l0 -70 70 0 70 0 0 70 0 70 -70 0 -70 0 0 -70z"/>
<path d="M8310 640 l0 -70 70 0 70 0 0 70 0 70 -70 0 -70 0 0 -70z"/>
<path d="M8492 643 l3 -68 70 0 70 0 3 68 3 67 -76 0 -76 0 3 -67z"/>
<path d="M8680 640 l0 -70 70 0 70 0 0 70 0 70 -70 0 -70 0 0 -70z"/>
<path d="M8860 640 l0 -70 70 0 70 0 0 70 0 70 -70 0 -70 0 0 -70z"/>
<path d="M9042 643 l3 -68 73 -3 72 -3 0 71 0 70 -75 0 -76 0 3 -67z"/>
<path d="M9230 640 l0 -70 70 0 70 0 0 70 0 70 -70 0 -70 0 0 -70z"/>
<path d="M310 520 l0 -70 70 0 70 0 0 70 0 70 -70 0 -70 0 0 -70z"/>
<path d="M490 520 l0 -70 75 0 75 0 0 70 0 70 -75 0 -75 0 0 -70z"/>
<path d="M680 520 l0 -70 70 0 70 0 0 70 0 70 -70 0 -70 0 0 -70z"/>
<path d="M860 520 l0 -70 70 0 70 0 0 70 0 70 -70 0 -70 0 0 -70z"/>
<path d="M1040 520 l0 -70 75 0 75 0 0 70 0 70 -75 0 -75 0 0 -70z"/>
<path d="M1230 520 l0 -70 70 0 70 0 0 70 0 70 -70 0 -70 0 0 -70z"/>
<path d="M1410 520 l0 -70 75 0 75 0 0 70 0 70 -75 0 -75 0 0 -70z"/>
<path d="M1590 520 l0 -70 75 0 75 0 0 70 0 70 -75 0 -75 0 0 -70z"/>
<path d="M1780 520 l0 -70 70 0 70 0 0 70 0 70 -70 0 -70 0 0 -70z"/>
<path d="M1960 520 l0 -70 75 0 76 0 -3 68 -3 67 -72 3 -73 3 0 -71z"/>
<path d="M2140 520 l0 -70 75 0 75 0 0 70 0 70 -75 0 -75 0 0 -70z"/>
<path d="M2330 520 l0 -70 73 0 72 0 -1 67 -2 68 -71 3 -71 3 0 -71z"/>
<path d="M2510 520 l0 -70 75 0 75 0 0 70 0 70 -75 0 -75 0 0 -70z"/>
<path d="M2700 520 l0 -70 70 0 70 0 0 70 0 70 -70 0 -70 0 0 -70z"/>
<path d="M2880 520 l0 -70 70 0 70 0 0 70 0 70 -70 0 -70 0 0 -70z"/>
<path d="M3057 583 c-4 -3 -7 -35 -7 -70 l0 -63 75 0 75 0 0 70 0 70 -68 0
c-38 0 -72 -3 -75 -7z"/>
<path d="M3240 520 l0 -70 70 0 70 0 0 70 0 70 -70 0 -70 0 0 -70z"/>
<path d="M3420 520 l0 -70 75 0 75 0 0 70 0 70 -75 0 -75 0 0 -70z"/>
<path d="M3610 520 l0 -70 70 0 70 0 0 70 0 70 -70 0 -70 0 0 -70z"/>
<path d="M3790 520 l0 -70 73 0 72 0 -3 70 -4 70 -69 0 -69 0 0 -70z"/>
<path d="M3970 520 l0 -70 75 0 75 0 0 70 0 70 -75 0 -75 0 0 -70z"/>
<path d="M4160 520 l0 -70 70 0 70 0 0 70 0 70 -70 0 -70 0 0 -70z"/>
<path d="M4340 520 l0 -70 75 0 75 0 0 70 0 70 -75 0 -75 0 0 -70z"/>
<path d="M4530 520 l0 -70 70 0 70 0 0 70 0 70 -70 0 -70 0 0 -70z"/>
<path d="M4710 520 l0 -70 70 0 70 0 0 70 0 70 -70 0 -70 0 0 -70z"/>
<path d="M6650 460 l0 -70 75 0 75 0 0 70 0 70 -75 0 -75 0 0 -70z"/>
<path d="M6840 458 l0 -73 70 0 70 0 0 73 0 72 -70 0 -70 0 0 -72z"/>
<path d="M7020 460 l0 -70 75 0 75 0 0 70 0 70 -75 0 -75 0 0 -70z"/>
<path d="M7210 458 l0 -73 67 1 68 2 3 71 3 71 -71 0 -70 0 0 -72z"/>
<path d="M7390 460 l0 -70 75 0 75 0 0 70 0 70 -75 0 -75 0 0 -70z"/>
<path d="M7574 516 c-3 -7 -4 -39 -2 -71 l3 -57 70 0 70 0 3 71 3 71 -71 0
c-50 0 -72 -4 -76 -14z"/>
<path d="M7760 461 l0 -69 70 -4 70 -3 0 73 0 72 -70 0 -70 0 0 -69z"/>
<path d="M7940 458 l0 -73 70 3 70 4 0 69 0 69 -70 0 -70 0 0 -72z"/>
<path d="M8130 460 l0 -70 70 0 70 0 0 70 0 70 -70 0 -70 0 0 -70z"/>
<path d="M8310 460 l0 -70 70 0 70 0 0 70 0 70 -70 0 -70 0 0 -70z"/>
<path d="M8497 524 c-4 -4 -7 -36 -7 -71 l0 -63 75 0 76 0 -3 68 -3 67 -65 3
c-36 2 -69 0 -73 -4z"/>
<path d="M8680 460 l0 -70 70 0 70 0 0 70 0 70 -70 0 -70 0 0 -70z"/>
<path d="M8860 460 l0 -70 70 0 70 0 0 70 0 70 -70 0 -70 0 0 -70z"/>
<path d="M9040 460 l0 -70 75 0 75 0 0 70 0 70 -75 0 -75 0 0 -70z"/>
<path d="M9230 460 l0 -70 70 0 70 0 0 70 0 70 -70 0 -70 0 0 -70z"/>
<path d="M310 335 l0 -75 70 0 70 0 0 75 0 75 -70 0 -70 0 0 -75z"/>
<path d="M490 335 l0 -75 75 0 75 0 0 75 0 75 -75 0 -75 0 0 -75z"/>
<path d="M680 335 l0 -75 70 0 70 0 0 75 0 75 -70 0 -70 0 0 -75z"/>
<path d="M860 335 l0 -75 70 0 70 0 0 75 0 75 -70 0 -70 0 0 -75z"/>
<path d="M1040 335 l0 -75 75 0 75 0 0 75 0 75 -75 0 -75 0 0 -75z"/>
<path d="M1230 335 l0 -75 70 0 70 0 0 75 0 75 -70 0 -70 0 0 -75z"/>
<path d="M1410 335 l0 -75 75 0 76 0 -3 73 -3 72 -72 3 -73 3 0 -76z"/>
<path d="M1597 403 c-4 -3 -7 -37 -7 -75 l0 -68 75 0 75 0 0 75 0 75 -68 0
c-38 0 -72 -3 -75 -7z"/>
<path d="M1780 335 l0 -75 70 0 70 0 0 75 0 75 -70 0 -70 0 0 -75z"/>
<path d="M1960 335 l0 -75 75 0 76 0 -3 73 -3 72 -72 3 -73 3 0 -76z"/>
<path d="M2140 335 l0 -75 75 0 75 0 0 75 0 75 -75 0 -75 0 0 -75z"/>
<path d="M2330 335 l0 -75 69 0 69 0 4 71 c2 39 1 73 -1 75 -2 2 -35 4 -73 4
l-68 0 0 -75z"/>
<path d="M2510 335 l0 -75 75 0 76 0 -3 73 -3 72 -72 3 -73 3 0 -76z"/>
<path d="M2700 335 l0 -75 70 0 70 0 0 75 0 75 -70 0 -70 0 0 -75z"/>
<path d="M2880 335 l0 -75 70 0 70 0 0 75 0 75 -70 0 -70 0 0 -75z"/>
<path d="M3057 403 c-4 -3 -7 -37 -7 -75 l0 -68 75 0 75 0 0 75 0 75 -68 0
c-38 0 -72 -3 -75 -7z"/>
<path d="M3240 335 l0 -75 70 0 70 0 0 75 0 75 -70 0 -70 0 0 -75z"/>
<path d="M3427 403 c-4 -3 -7 -37 -7 -75 l0 -68 75 0 75 0 0 75 0 75 -68 0
c-38 0 -72 -3 -75 -7z"/>
<path d="M3610 335 l0 -75 70 0 70 0 0 75 0 75 -70 0 -70 0 0 -75z"/>
<path d="M3790 335 l0 -75 69 0 69 0 4 71 c2 39 1 73 -1 75 -2 2 -35 4 -73 4
l-68 0 0 -75z"/>
<path d="M3970 335 l0 -75 75 0 75 0 0 75 0 75 -75 0 -75 0 0 -75z"/>
<path d="M4160 335 l0 -75 70 0 70 0 0 75 0 75 -70 0 -70 0 0 -75z"/>
<path d="M4340 335 l0 -75 75 0 75 0 0 75 0 75 -75 0 -75 0 0 -75z"/>
<path d="M4530 335 l0 -75 70 0 70 0 0 75 0 75 -70 0 -70 0 0 -75z"/>
<path d="M4710 335 l0 -75 70 0 70 0 0 75 0 75 -70 0 -70 0 0 -75z"/>
<path d="M6654 337 c-3 -8 -4 -41 -2 -73 l3 -59 73 -3 73 -3 -3 73 -3 73 -68
3 c-51 2 -69 -1 -73 -11z"/>
<path d="M6840 275 l0 -75 70 0 70 0 0 75 0 75 -70 0 -70 0 0 -75z"/>
<path d="M7027 344 c-4 -4 -7 -38 -7 -76 l0 -68 75 0 76 0 -3 73 -3 72 -65 3
c-36 2 -69 0 -73 -4z"/>
<path d="M7210 275 l0 -75 70 0 70 0 0 75 0 75 -70 0 -70 0 0 -75z"/>
<path d="M7397 344 c-4 -4 -7 -38 -7 -76 l0 -69 73 3 72 3 0 70 0 70 -65 3
c-36 2 -69 0 -73 -4z"/>
<path d="M7574 337 c-3 -8 -4 -41 -2 -73 l3 -59 70 0 70 0 0 70 0 70 -68 3
c-51 2 -69 -1 -73 -11z"/>
<path d="M7760 275 l0 -75 70 0 70 0 0 75 0 75 -70 0 -70 0 0 -75z"/>
<path d="M7940 276 l0 -76 70 0 70 0 0 65 c0 36 0 68 0 72 0 4 -31 9 -70 11
l-70 4 0 -76z"/>
<path d="M8130 273 l0 -73 70 0 70 0 0 73 0 72 -70 0 -70 0 0 -72z"/>
<path d="M8860 273 l0 -73 70 0 70 0 0 73 0 72 -70 0 -70 0 0 -72z"/>
<path d="M9047 343 c-4 -3 -7 -35 -7 -70 l0 -63 75 0 75 0 0 70 0 70 -68 0
c-38 0 -72 -3 -75 -7z"/>
<path d="M9230 280 l0 -70 70 0 70 0 0 70 0 70 -70 0 -70 0 0 -70z"/>
<path d="M8310 270 l0 -71 68 3 67 3 3 68 3 67 -71 0 -70 0 0 -70z"/>
<path d="M8492 273 l3 -68 70 0 70 0 3 68 3 67 -76 0 -76 0 3 -67z"/>
<path d="M8682 273 l3 -68 65 0 65 0 3 68 3 67 -71 0 -71 0 3 -67z"/>
</g>
</svg>
